<svg xmlns="http://www.w3.org/2000/svg" width="256" height="256" viewBox="0 0 100 100"><rect width="100" height="100" rx="20" fill="#ffffff"></rect><path fill="#4a4a4a" d="M29.33 26.08L29.33 26.08Q33.62 26.08 36.38 27.35Q39.14 28.62 41.29 30.31L41.29 30.31Q42.59 31.28 43.27 30.53Q43.95 29.79 44.21 26.99L44.21 26.99L45.71 26.99Q45.58 29.40 45.52 32.84Q45.45 36.29 45.45 41.94L45.45 41.94L43.95 41.94Q43.50 39.15 43.11 37.49Q42.72 35.83 42.17 34.66Q41.61 33.49 40.70 32.32L40.70 32.32Q38.69 29.66 35.63 28.45Q32.58 27.25 29.20 27.25L29.20 27.25Q26.01 27.25 23.45 28.84Q20.88 30.44 19.03 33.43Q17.17 36.42 16.17 40.64Q15.16 44.87 15.16 50.13L15.16 50.13Q15.16 55.59 16.26 59.78Q17.37 63.98 19.35 66.84Q21.33 69.70 24.03 71.16Q26.73 72.62 29.85 72.62L29.85 72.62Q32.77 72.62 35.96 71.45Q39.14 70.28 40.96 67.68L40.96 67.68Q42.39 65.80 42.95 63.59Q43.50 61.38 43.95 57.41L43.95 57.41L45.45 57.41Q45.45 63.33 45.52 66.93Q45.58 70.54 45.71 73.01L45.71 73.01L44.21 73.01Q43.95 70.22 43.34 69.50Q42.72 68.79 41.29 69.70L41.29 69.70Q38.88 71.39 36.19 72.65Q33.49 73.92 29.26 73.92L29.26 73.92Q23.09 73.92 18.44 71.13Q13.79 68.33 11.23 63.07Q8.66 57.80 8.66 50.39L8.66 50.39Q8.66 43.11 11.32 37.65Q13.99 32.19 18.64 29.14Q23.28 26.08 29.33 26.08ZM91.34 26.99L91.34 26.99L91.34 28.29Q90.10 28.55 88.71 29.79Q87.31 31.02 86.20 33.95L86.20 33.95L70.93 73.34Q70.80 73.34 70.67 73.34Q70.54 73.34 70.41 73.34L70.41 73.34Q70.28 73.34 70.15 73.34Q70.02 73.34 69.89 73.34L69.89 73.34L54.03 32.45Q53.05 29.98 51.82 29.17Q50.58 28.36 49.54 28.29L49.54 28.29L49.54 26.99Q50.84 27.06 52.76 27.12Q54.68 27.19 56.50 27.19L56.50 27.19Q59.03 27.19 61.24 27.12Q63.45 27.06 64.82 26.99L64.82 26.99L64.82 28.29Q61.50 28.42 60.63 29.43Q59.75 30.44 60.98 33.75L60.98 33.75L73.07 65.80L72.03 66.90L83.34 37.52Q84.71 34.01 84.64 32.03Q84.58 30.05 83.15 29.20Q81.72 28.36 78.99 28.29L78.99 28.29L78.99 26.99Q80.88 27.06 82.82 27.12Q84.78 27.19 86.47 27.19L86.47 27.19Q88.16 27.19 89.26 27.12Q90.36 27.06 91.34 26.99Z"></path></svg>